<svg width="24" height="24" viewBox="0 0 24 24" fill="none" xmlns="http://www.w3.org/2000/svg">
<g id="AirplaneTakeoff/Regular">
<path id="Vector" d="M2.25 20.25H15.75" stroke="#57FFAE" stroke-width="2" stroke-linecap="round" stroke-linejoin="round"/>
<path id="Vector_2" d="M1.58665 13.1593L5.12059 16.4724C5.59144 16.9138 6.19209 17.1916 6.83336 17.2646C7.47463 17.3375 8.12232 17.2017 8.68028 16.8773L22.8747 8.62472L21.1273 6.48897C20.674 5.93489 20.0374 5.5612 19.3327 5.43538C18.6279 5.30955 17.9014 5.4399 17.2844 5.80288L13.1247 8.24972L7.49973 6.37472L5.95295 7.03762C5.83723 7.08722 5.73586 7.16515 5.65817 7.26423C5.58049 7.36331 5.529 7.48035 5.50845 7.60456C5.4879 7.72878 5.49895 7.85616 5.54058 7.97498C5.58221 8.0938 5.65309 8.20023 5.74667 8.28445L8.62473 10.8747L5.99973 12.3747L3.37473 11.2497L1.80417 11.9228C1.68963 11.9719 1.58913 12.0488 1.51175 12.1464C1.43437 12.2441 1.38254 12.3595 1.36095 12.4822C1.33936 12.605 1.34869 12.7311 1.3881 12.8494C1.4275 12.9676 1.49575 13.0741 1.58665 13.1593V13.1593Z" stroke="#57FFAE" stroke-width="2" stroke-linecap="round" stroke-linejoin="round"/>
</g>
</svg>
