<svg xmlns="http://www.w3.org/2000/svg" width="24" height="24" viewBox="0 0 24 24" fill="none">
  <path d="M9 20.25H22.5" stroke="#FCFCFC" stroke-width="2" stroke-linecap="round" stroke-linejoin="round"/>
  <path d="M2.25 9.72507V4.79102C2.25 4.67218 2.27824 4.55504 2.33239 4.44926C2.38655 4.34347 2.46506 4.25207 2.56147 4.18258C2.65787 4.1131 2.76941 4.06752 2.88689 4.04959C3.00437 4.03167 3.12443 4.04192 3.23717 4.0795L4.5 4.50045L6 7.31295L9 8.25045V4.79102C9 4.67218 9.02824 4.55504 9.08239 4.44926C9.13655 4.34347 9.21506 4.25207 9.31147 4.18258C9.40787 4.1131 9.51941 4.06752 9.63689 4.04959C9.75437 4.03167 9.87443 4.04192 9.98717 4.0795L11.25 4.50045L14.25 9.75045L18.8029 11.0152C19.4347 11.1906 19.9916 11.5683 20.3884 12.0903C20.7852 12.6124 21 13.25 21 13.9057V17.2504L4.44111 12.614C3.81071 12.4374 3.25535 12.0596 2.85974 11.538C2.46414 11.0164 2.25 10.3797 2.25 9.72507V9.72507Z" stroke="#FCFCFC" stroke-width="2" stroke-linecap="round" stroke-linejoin="round"/>
</svg>